<svg width="18" height="19" viewBox="0 0 18 19" fill="none" xmlns="http://www.w3.org/2000/svg">
<path d="M9 10C11.7614 10 14 7.76143 14 5C14 2.23858 11.7614 0 9 0C6.23857 0 4 2.23858 4 5C4 7.76143 6.23857 10 9 10Z" fill="#ADAFBB"/>
<path d="M0 18.4V19H18V18.4C18 16.1598 18 15.0397 17.5641 14.184C17.1806 13.4314 16.5686 12.8195 15.816 12.436C14.9603 12 13.8402 12 11.6 12H6.4C4.1598 12 3.0397 12 2.18405 12.436C1.43139 12.8195 0.819465 13.4314 0.435975 14.184C8.9407e-08 15.0397 0 16.1598 0 18.4Z" fill="#ADAFBB"/>
</svg>
