<svg width="20" height="20" viewBox="0 0 20 20" fill="none" xmlns="http://www.w3.org/2000/svg">
<path d="M19.9999 10.0001C19.9999 15.523 15.5227 20.0001 9.99988 20.0001C7.01313 20 -0.000124879 20 -0.000124879 20C-0.000124879 20 -7.8275e-05 12.5361 -6.24396e-05 10C-2.79552e-05 4.47715 4.47715 2.79552e-05 10 6.24396e-05C15.5229 9.69241e-05 20 4.47727 19.9999 10.0001Z" fill="#ADAFBB"/>
<path fill-rule="evenodd" clip-rule="evenodd" d="M3.99999 7C4 6.44772 4.44772 6 5 6.00001L14 6.00006C14.5523 6.00007 15 6.44778 15 7.00007C15 7.55235 14.5523 8.00007 14 8.00006L4.99999 8.00001C4.4477 8 3.99999 7.55228 3.99999 7Z" fill="white"/>
<path fill-rule="evenodd" clip-rule="evenodd" d="M3.99999 11C4 10.4477 4.44772 10 5 10L14 10.0001C14.5523 10.0001 15 10.4478 15 11.0001C15 11.5524 14.5523 12.0001 14 12.0001L4.99999 12C4.4477 12 3.99999 11.5523 3.99999 11Z" fill="white"/>
<path fill-rule="evenodd" clip-rule="evenodd" d="M3.99999 15C4 14.4477 4.44772 14 5 14L10 14C10.5523 14 11 14.4478 11 15C11 15.5523 10.5523 16 9.99999 16L4.99999 16C4.4477 16 3.99999 15.5523 3.99999 15Z" fill="white"/>
</svg>
